<?xml version="1.0" encoding="utf-8"?>
<!-- Generator: Adobe Illustrator 28.1.0, SVG Export Plug-In . SVG Version: 6.00 Build 0)  -->
<svg version="1.1" id="Layer_1" xmlns="http://www.w3.org/2000/svg" xmlns:xlink="http://www.w3.org/1999/xlink" x="0px" y="0px"
	 viewBox="0 0 358 186.2" style="enable-background:new 0 0 358 186.2;" xml:space="preserve">
<style type="text/css">
	.st0{fill:#FFFFFF;stroke:#231F20;stroke-width:0.75;stroke-miterlimit:10;}
	.st1{fill:#010101;}
	.st2{fill:none;stroke:#231F20;stroke-width:0.75;stroke-linejoin:round;}
	.st3{fill:none;stroke:#231F20;stroke-width:0.75;stroke-linejoin:round;stroke-dasharray:0.8331,0.8331;}
	.st4{fill:#231F20;}
	.st5{fill:none;stroke:#231F20;stroke-width:0.75;stroke-miterlimit:10;}
	.st6{fill:#FFFFFF;stroke:#231F20;stroke-width:0.75;stroke-linecap:round;stroke-miterlimit:10;}
	.st7{fill:none;stroke:#231F20;stroke-width:0.75;stroke-linecap:round;stroke-miterlimit:10;}
	.st8{fill:none;stroke:#EC2227;stroke-width:0.75;stroke-linejoin:round;stroke-miterlimit:10;}
	.st9{fill:#FFFFFF;stroke:#EC2227;stroke-width:0.5;stroke-linecap:round;stroke-miterlimit:10;}
	.st10{fill:none;stroke:#EC2227;stroke-width:0.5;stroke-linecap:round;stroke-miterlimit:10;}
	.st11{fill:#EC2227;stroke:#EC2227;stroke-width:0.5;stroke-miterlimit:10;}
	.st12{fill:#FFFFFF;stroke:#EC2227;stroke-width:0.5;stroke-miterlimit:10;}
	.st13{fill:none;stroke:#231F20;stroke-width:0.75;stroke-linejoin:round;stroke-miterlimit:10;}
	.st14{fill:#231F20;stroke:#231F20;stroke-miterlimit:10;}
	.st15{fill:none;stroke:#804099;stroke-width:0.75;stroke-miterlimit:10;}
	.st16{fill:none;stroke:#EC2227;stroke-width:0.75;stroke-miterlimit:10;}
	.st17{fill:#231F20;stroke:#231F20;stroke-width:0.5;stroke-linecap:round;stroke-miterlimit:10;}
	.st18{fill:none;stroke:#D2D3D4;stroke-width:0.75;stroke-linejoin:round;stroke-miterlimit:10;}
	.st19{fill:#EC2227;stroke:#D2D3D4;stroke-width:0.5;stroke-miterlimit:10;}
	.st20{fill:#FFFFFF;stroke:#D2D3D4;stroke-width:0.5;stroke-miterlimit:10;}
	.st21{fill:#FFFFFF;stroke:#804099;stroke-width:0.5;stroke-miterlimit:10;}
	.st22{fill:#FFFFFF;stroke:#D2D3D4;stroke-width:0.5;stroke-linecap:round;stroke-miterlimit:10;}
	.st23{fill:none;stroke:#D2D3D4;stroke-width:0.5;stroke-linecap:round;stroke-miterlimit:10;}
	.st24{fill:#EC2227;stroke:#EC2227;stroke-width:0.5;stroke-linecap:round;stroke-miterlimit:10;}
	.st25{fill:#D2D3D4;}
	.st26{fill:#804099;}
	.st27{fill:#BDBEC0;}
	.st28{fill:#F2E9EA;stroke:#231F20;stroke-width:0.75;stroke-miterlimit:10;}
	.st29{fill:#E6E7E7;stroke:#231F20;stroke-width:0.75;stroke-miterlimit:10;}
	.st30{fill:#EC2227;}
	.st31{fill:#C2BFDB;stroke:#231F20;stroke-width:0.75;stroke-miterlimit:10;}
	.st32{opacity:0.8;fill:#C2BFDB;stroke:#231F20;stroke-width:0.75;stroke-miterlimit:10;enable-background:new    ;}
	.st33{fill:#FCB858;stroke:#231F20;stroke-width:0.75;stroke-miterlimit:10;}
	.st34{opacity:0.8;fill:#FCB858;stroke:#231F20;stroke-width:0.75;stroke-miterlimit:10;enable-background:new    ;}
	.st35{opacity:0.15;}
	.st36{fill:#ED82A4;stroke:#231F20;stroke-width:0.35;stroke-miterlimit:10;}
	.st37{fill:#89C055;stroke:#231F20;stroke-width:0.35;stroke-miterlimit:10;}
	.st38{fill:#F0923E;stroke:#231F20;stroke-width:0.35;stroke-miterlimit:10;}
	.st39{fill:none;stroke:#231F20;stroke-width:0.2;stroke-miterlimit:10;}
	.st40{fill:none;stroke:#804099;stroke-width:0.5;stroke-linecap:round;stroke-miterlimit:10;}
	.st41{fill:none;stroke:#231F20;stroke-width:0.75;stroke-miterlimit:10;stroke-dasharray:4.9584,2.975;}
	.st42{fill:#F7B658;stroke:#231F1D;stroke-width:0.75;stroke-miterlimit:10;}
	.st43{opacity:0.8;fill:#F7B658;stroke:#231F1D;stroke-width:0.75;stroke-miterlimit:10;enable-background:new    ;}
	.st44{fill:none;stroke:#231F1D;stroke-width:0.75;stroke-miterlimit:10;}
	.st45{fill:#C1BFDB;stroke:#231F20;stroke-width:0.75;stroke-miterlimit:10;}
	.st46{opacity:0.8;fill:#C1BFDB;stroke:#231F20;stroke-width:0.75;stroke-miterlimit:10;enable-background:new    ;}
	.st47{fill:none;}
	.st48{font-family:'Times-Roman';}
	.st49{font-size:8px;}
</style>
<path class="st0" d="M335.7,70H224.3c-0.8,0-1.4-0.6-1.4-1.4V6.2c0-0.8,0.6-1.4,1.4-1.4h111.4c0.8,0,1.4,0.6,1.4,1.4v62.4
	C337.1,69.3,336.5,70,335.7,70z"/>
<g>
	<g>
		<path id="g1-69_00000040559295579686140700000007626591049645067669_" class="st1" d="M327.7,10.4c-1.5,0.8-1.6,1.8-1.6,2
			c0,0.7,0.8,1,1.5,1c1.5,0,2.6-1.2,2.6-1.4c0-0.1-0.1-0.1-0.1-0.1s-0.3,0-0.6,0.3c-0.1,0.2-0.6,0.6-1.3,0.6c-0.5,0-1.4-0.2-1.4-0.8
			c0-0.3,0.2-0.7,0.5-1c0.5-0.5,1.3-0.5,1.3-0.5c0.2,0,0.3,0,0.5-0.1c0.1-0.1,0.3-0.2,0.3-0.3s-0.1-0.1-0.2-0.1
			c-0.5,0-1.5-0.1-1.5-0.9c0-0.1,0-0.5,0.4-0.7c0.2-0.1,0.5-0.2,0.9-0.2c0.2,0,0.4,0,0.6,0.1c0.1,0,0.3,0.1,0.3,0.3
			c0,0.1,0,0.2-0.1,0.2v0.1c0,0.1,0,0.1,0.1,0.1c0.2,0,0.7-0.3,0.7-0.8c0-0.4-0.5-0.6-1-0.6c-1.3,0-2.6,0.9-2.6,1.8
			C326.9,10.2,327.5,10.4,327.7,10.4z"/>
	</g>
	<g>
		<path id="g4-110_00000005226763090987124050000005530581466326244031_" class="st1" d="M331.8,13.9c0,0.2-0.1,0.4-0.1,0.5
			s0.1,0.2,0.2,0.2s0.2-0.1,0.3-0.2c0,0,0.1-0.3,0.1-0.5c0.2-0.9,0.2-0.9,0.2-0.9c0.1-0.2,0.5-1.1,1.3-1.1c0.3,0,0.4,0.2,0.4,0.5
			c0,0.4-0.3,1-0.4,1.4c0,0.1-0.1,0.2-0.1,0.3c0,0.3,0.3,0.6,0.7,0.6c0.7,0,1-0.8,1-1c0-0.1-0.1-0.1-0.1-0.1c-0.1,0-0.1,0-0.1,0.1
			c-0.1,0.4-0.4,0.7-0.7,0.7c-0.1,0-0.2-0.1-0.2-0.2c0-0.1,0-0.2,0.1-0.3c0.1-0.3,0.4-1,0.4-1.3c0-0.5-0.3-0.8-0.9-0.8
			s-1,0.4-1.2,0.6c0-0.5-0.5-0.6-0.8-0.6c-0.6,0-0.8,1-0.8,1c0,0.1,0.1,0.1,0.1,0.1c0.1,0,0.1,0,0.1-0.1c0.1-0.4,0.2-0.7,0.5-0.7
			c0.2,0,0.3,0.2,0.3,0.3s-0.1,0.3-0.1,0.5s-0.1,0.4-0.1,0.6L331.8,13.9z"/>
	</g>
</g>
<g>
	<g>
		<line class="st2" x1="289.1" y1="152.8" x2="289.1" y2="152.3"/>
		<line class="st3" x1="289.1" y1="151.5" x2="289.1" y2="150.2"/>
		<line class="st2" x1="289.1" y1="149.8" x2="289.1" y2="149.3"/>
		<g>
			<polygon class="st4" points="291.7,152.1 289.1,156.6 286.5,152.1 			"/>
		</g>
	</g>
</g>
<g>
	<g>
		<line class="st2" x1="163.4" y1="81.3" x2="159.8" y2="81.3"/>
		<g>
			<polygon class="st4" points="162.7,78.7 167.2,81.3 162.7,83.9 			"/>
		</g>
	</g>
</g>
<g>
	<g>
		<line class="st2" x1="163.4" y1="45.6" x2="30.7" y2="45.6"/>
		<g>
			<polygon class="st4" points="162.7,43 167.2,45.6 162.7,48.3 			"/>
		</g>
	</g>
</g>
<g>
	<g>
		<line class="st2" x1="344.5" y1="160.6" x2="344.5" y2="181.4"/>
		<g>
			<polygon class="st4" points="341.9,161.4 344.5,156.8 347.1,161.4 			"/>
		</g>
	</g>
</g>
<g>
	<g>
		<line class="st5" x1="334.8" y1="152.2" x2="354.2" y2="152.2"/>
		<g>
			<polygon class="st4" points="353.5,154.8 358,152.2 353.5,149.5 			"/>
		</g>
	</g>
</g>
<g>
	<circle class="st6" cx="344.5" cy="152.2" r="4.7"/>
	<path class="st7" d="M344.5,155.5v-6.7V155.5z"/>
	<path class="st7" d="M347.9,152.2h-6.7H347.9z"/>
</g>
<line class="st8" x1="227.9" y1="143.9" x2="303.6" y2="143.9"/>
<g>
	<circle class="st9" cx="271.5" cy="143.9" r="2.1"/>
	<path class="st10" d="M271.5,145.4v-3.1V145.4z"/>
	<path class="st10" d="M273,143.9h-3.1H273z"/>
</g>
<g>
	<circle class="st11" cx="306.7" cy="143.9" r="0.2"/>
	<circle class="st11" cx="308" cy="143.9" r="0.2"/>
	<circle class="st11" cx="309.3" cy="143.9" r="0.2"/>
</g>
<circle class="st12" cx="261.1" cy="143.9" r="4.7"/>
<line class="st13" x1="159.8" y1="81.3" x2="159.8" y2="181.2"/>
<line class="st5" x1="159.8" y1="181.3" x2="344.5" y2="181.5"/>
<g>
	<circle class="st14" cx="209.5" cy="13.5" r="0.4"/>
	<circle class="st14" cx="214.3" cy="11.1" r="0.4"/>
	<circle class="st14" cx="219.1" cy="8.8" r="0.4"/>
</g>
<path class="st15" d="M198.6,167.7"/>
<path class="st15" d="M336.4,161.1"/>
<path class="st16" d="M254.6,141.7"/>
<circle class="st17" cx="334" cy="152.2" r="1.4"/>
<line class="st5" x1="330.6" y1="161.3" x2="334" y2="152.1"/>
<circle class="st12" cx="289.1" cy="143.9" r="4.7"/>
<g>
	<circle class="st9" cx="299.2" cy="143.9" r="2.1"/>
	<path class="st10" d="M299.2,145.4v-3.1V145.4z"/>
	<path class="st10" d="M300.8,143.9h-3.1H300.8z"/>
</g>
<circle class="st12" cx="317" cy="143.9" r="4.7"/>
<line class="st8" x1="321.7" y1="143.9" x2="330.2" y2="143.9"/>
<line class="st18" x1="227.9" y1="161.3" x2="303.4" y2="161.3"/>
<g>
	<circle class="st19" cx="306.5" cy="161.3" r="0.2"/>
	<circle class="st19" cx="307.8" cy="161.3" r="0.2"/>
	<circle class="st19" cx="309.1" cy="161.3" r="0.2"/>
</g>
<circle class="st20" cx="260.9" cy="161.3" r="4.7"/>
<circle class="st20" cx="316.9" cy="161.3" r="4.7"/>
<circle class="st21" cx="289.1" cy="161.3" r="4.7"/>
<g>
	<circle class="st22" cx="271.5" cy="161.3" r="2.1"/>
	<path class="st23" d="M271.5,162.8v-3.1V162.8z"/>
	<path class="st23" d="M273,161.3h-3.1H273z"/>
</g>
<g>
	<circle class="st22" cx="299.2" cy="161.3" r="2.1"/>
	<path class="st23" d="M299.2,162.8v-3.1V162.8z"/>
	<path class="st23" d="M300.8,161.3h-3.1H300.8z"/>
</g>
<g>
	<circle class="st24" cx="330.9" cy="143.9" r="1.4"/>
	<circle class="st17" cx="330.6" cy="161.3" r="1.4"/>
</g>
<g>
	<path id="g1-119_00000116921915342306755770000013316811197937133706_" class="st25" d="M259.9,160.5c0.1-0.1,0.1-0.2,0.1-0.3
		c0-0.4-0.4-0.7-0.7-0.7c-0.8,0-1.1,1-1.1,1.2c0,0,0,0.1,0.1,0.1s0.1,0,0.1-0.1c0.2-0.7,0.6-0.9,0.8-0.9c0.1,0,0.2,0.1,0.2,0.3
		s-0.1,0.4-0.2,0.6c-0.3,0.7-0.3,1-0.3,1.2c0,0.7,0.6,1,1.3,1c0.1,0,0.5,0,0.9-0.5l0.1,0.1c0.1,0.1,0.3,0.4,1.1,0.4
		c1.4,0,1.7-2.5,1.7-2.8c0-0.5-0.3-0.6-0.4-0.6c-0.2,0-0.4,0.2-0.4,0.4c0,0.1,0.1,0.2,0.1,0.2c0.2,0.1,0.3,0.3,0.3,0.6
		c0,0.2-0.4,1.9-1.3,1.9c-0.7,0-0.7-0.5-0.7-0.7s0.1-0.5,0.1-0.7l0.2-0.8l0.1-0.4c0-0.1,0.1-0.2,0.1-0.3s-0.1-0.2-0.3-0.2
		c-0.3,0-0.3,0.2-0.4,0.5c-0.1,0.2-0.3,1.3-0.4,1.4c0,0.1,0,0.2,0,0.4c0,0.1,0,0.1,0,0.1c-0.2,0.5-0.4,0.6-0.8,0.6
		c-0.5,0-0.7-0.3-0.7-0.7c0-0.3,0.1-0.7,0.3-1.2L259.9,160.5z"/>
</g>
<g>
	<path id="g1-119_00000128472739293223311520000005263988538406257845_" class="st26" d="M288,160.5c0.1-0.1,0.1-0.2,0.1-0.3
		c0-0.4-0.4-0.7-0.7-0.7c-0.8,0-1.1,1-1.1,1.2c0,0,0,0.1,0.1,0.1s0.1,0,0.1-0.1c0.2-0.7,0.6-0.9,0.8-0.9c0.1,0,0.2,0.1,0.2,0.3
		s-0.1,0.4-0.2,0.6c-0.3,0.7-0.3,1-0.3,1.2c0,0.7,0.6,1,1.3,1c0.1,0,0.5,0,0.9-0.5l0.1,0.1c0.1,0.1,0.3,0.4,1.1,0.4
		c1.4,0,1.7-2.5,1.7-2.8c0-0.5-0.3-0.6-0.4-0.6c-0.2,0-0.4,0.2-0.4,0.4c0,0.1,0.1,0.2,0.1,0.2c0.2,0.1,0.3,0.3,0.3,0.6
		c0,0.2-0.4,1.9-1.3,1.9c-0.7,0-0.7-0.5-0.7-0.7s0.1-0.5,0.1-0.7l0.2-0.8l0.1-0.4c0-0.1,0.1-0.2,0.1-0.3s-0.1-0.2-0.3-0.2
		c-0.3,0-0.3,0.2-0.4,0.5c-0.1,0.2-0.3,1.3-0.4,1.4c0,0.1,0,0.2,0,0.4c0,0.1,0,0.1,0,0.1c-0.2,0.5-0.4,0.6-0.8,0.6
		c-0.5,0-0.7-0.3-0.7-0.7c0-0.3,0.1-0.7,0.3-1.2L288,160.5z"/>
</g>
<g>
	<path id="g1-119_00000138569246445639564790000002818452455117313152_" class="st4" d="M288,143.1c0.1-0.1,0.1-0.2,0.1-0.3
		c0-0.4-0.4-0.7-0.7-0.7c-0.8,0-1.1,1-1.1,1.2c0,0,0,0.1,0.1,0.1s0.1,0,0.1-0.1c0.2-0.7,0.6-0.9,0.8-0.9c0.1,0,0.2,0.1,0.2,0.3
		s-0.1,0.4-0.2,0.6c-0.3,0.7-0.3,1-0.3,1.2c0,0.7,0.6,1,1.3,1c0.1,0,0.5,0,0.9-0.5l0.1,0.1c0.1,0.1,0.3,0.4,1.1,0.4
		c1.4,0,1.7-2.5,1.7-2.8c0-0.5-0.3-0.6-0.4-0.6c-0.2,0-0.4,0.2-0.4,0.4c0,0.1,0.1,0.2,0.1,0.2c0.2,0.1,0.3,0.3,0.3,0.6
		c0,0.2-0.4,1.9-1.3,1.9c-0.7,0-0.7-0.5-0.7-0.7s0.1-0.5,0.1-0.7l0.2-0.8l0.1-0.4c0-0.1,0.1-0.2,0.1-0.3s-0.1-0.2-0.3-0.2
		c-0.3,0-0.3,0.2-0.4,0.5c-0.1,0.2-0.3,1.3-0.4,1.4c0,0.1,0,0.2,0,0.4c0,0.1,0,0.1,0,0.1c-0.2,0.5-0.4,0.6-0.8,0.6
		c-0.5,0-0.7-0.3-0.7-0.7c0-0.3,0.1-0.7,0.3-1.2L288,143.1z"/>
</g>
<g>
	<path id="g1-119_00000076603349832354663420000012059402982925776539_" class="st1" d="M260,143.1c0.1-0.1,0.1-0.2,0.1-0.3
		c0-0.4-0.4-0.7-0.7-0.7c-0.8,0-1.1,1-1.1,1.2c0,0,0,0.1,0.1,0.1s0.1,0,0.1-0.1c0.2-0.7,0.6-0.9,0.8-0.9c0.1,0,0.2,0.1,0.2,0.3
		s-0.1,0.4-0.2,0.6c-0.3,0.7-0.3,1-0.3,1.2c0,0.7,0.6,1,1.3,1c0.1,0,0.5,0,0.9-0.5l0.1,0.1c0.1,0.1,0.3,0.4,1.1,0.4
		c1.4,0,1.7-2.5,1.7-2.8c0-0.5-0.3-0.6-0.4-0.6c-0.2,0-0.4,0.2-0.4,0.4c0,0.1,0.1,0.2,0.1,0.2c0.2,0.1,0.3,0.3,0.3,0.6
		c0,0.2-0.4,1.9-1.3,1.9c-0.7,0-0.7-0.5-0.7-0.7s0.1-0.5,0.1-0.7l0.2-0.8l0.1-0.4c0-0.1,0.1-0.2,0.1-0.3s-0.1-0.2-0.3-0.2
		c-0.3,0-0.3,0.2-0.4,0.5c-0.1,0.2-0.3,1.3-0.4,1.4c0,0.1,0,0.2,0,0.4c0,0.1,0,0.1,0,0.1c-0.2,0.5-0.4,0.6-0.8,0.6
		c-0.5,0-0.7-0.3-0.7-0.7c0-0.3,0.1-0.7,0.3-1.2L260,143.1z"/>
</g>
<g>
	<path id="g1-119_00000140718284244454038560000009932126680178493119_" class="st1" d="M316,143.1c0.1-0.1,0.1-0.2,0.1-0.3
		c0-0.4-0.4-0.7-0.7-0.7c-0.8,0-1.1,1-1.1,1.2c0,0,0,0.1,0.1,0.1s0.1,0,0.1-0.1c0.2-0.7,0.6-0.9,0.8-0.9c0.1,0,0.2,0.1,0.2,0.3
		s-0.1,0.4-0.2,0.6c-0.3,0.7-0.3,1-0.3,1.2c0,0.7,0.6,1,1.3,1c0.1,0,0.5,0,0.9-0.5l0.1,0.1c0.1,0.1,0.3,0.4,1.1,0.4
		c1.4,0,1.7-2.5,1.7-2.8c0-0.5-0.3-0.6-0.4-0.6c-0.2,0-0.4,0.2-0.4,0.4c0,0.1,0.1,0.2,0.1,0.2c0.2,0.1,0.3,0.3,0.3,0.6
		c0,0.2-0.4,1.9-1.3,1.9c-0.7,0-0.7-0.5-0.7-0.7s0.1-0.5,0.1-0.7l0.2-0.8l0.1-0.4c0-0.1,0.1-0.2,0.1-0.3s-0.1-0.2-0.3-0.2
		c-0.3,0-0.3,0.2-0.4,0.5c-0.1,0.2-0.3,1.3-0.4,1.4c0,0.1,0,0.2,0,0.4c0,0.1,0,0.1,0,0.1c-0.2,0.5-0.4,0.6-0.8,0.6
		c-0.5,0-0.7-0.3-0.7-0.7c0-0.3,0.1-0.7,0.3-1.2L316,143.1z"/>
</g>
<g>
	<path id="g1-119_00000060734024982711869490000002226952291091332995_" class="st27" d="M315.8,160.5c0.1-0.1,0.1-0.2,0.1-0.3
		c0-0.4-0.4-0.7-0.7-0.7c-0.8,0-1.1,1-1.1,1.2c0,0,0,0.1,0.1,0.1s0.1,0,0.1-0.1c0.2-0.7,0.6-0.9,0.8-0.9c0.1,0,0.2,0.1,0.2,0.3
		s-0.1,0.4-0.2,0.6c-0.3,0.7-0.3,1-0.3,1.2c0,0.7,0.6,1,1.3,1c0.1,0,0.5,0,0.9-0.5l0.1,0.1c0.1,0.1,0.3,0.4,1.1,0.4
		c1.4,0,1.7-2.5,1.7-2.8c0-0.5-0.3-0.6-0.4-0.6c-0.2,0-0.4,0.2-0.4,0.4c0,0.1,0.1,0.2,0.1,0.2c0.2,0.1,0.3,0.3,0.3,0.6
		c0,0.2-0.4,1.9-1.3,1.9c-0.7,0-0.7-0.5-0.7-0.7s0.1-0.5,0.1-0.7l0.2-0.8l0.1-0.4c0-0.1,0.1-0.2,0.1-0.3s-0.1-0.2-0.3-0.2
		c-0.3,0-0.3,0.2-0.4,0.5c-0.1,0.2-0.3,1.3-0.4,1.4c0,0.1,0,0.2,0,0.4c0,0.1,0,0.1,0,0.1c-0.2,0.5-0.4,0.6-0.8,0.6
		c-0.5,0-0.7-0.3-0.7-0.7c0-0.3,0.1-0.7,0.3-1.2L315.8,160.5z"/>
</g>
<g>
	<g>
		<line class="st2" x1="261.1" y1="135.4" x2="261.1" y2="87"/>
		<g>
			<polygon class="st4" points="263.7,134.7 261.1,139.2 258.5,134.7 			"/>
		</g>
	</g>
</g>
<path class="st28" d="M74.1,69.2h-7c-1.4,0-2.5-1.1-2.5-2.5V24.6c0-1.4,1.1-2.5,2.5-2.5h7c1.4,0,2.5,1.1,2.5,2.5v42.2
	C76.6,68.1,75.5,69.2,74.1,69.2z"/>
<path class="st28" d="M87.9,69.2h-7c-1.4,0-2.5-1.1-2.5-2.5V24.6c0-1.4,1.1-2.5,2.5-2.5h7c1.4,0,2.5,1.1,2.5,2.5v42.2
	C90.4,68.1,89.3,69.2,87.9,69.2z"/>
<path class="st29" d="M101.7,69.2h-7c-1.4,0-2.5-1.1-2.5-2.5V24.6c0-1.4,1.1-2.5,2.5-2.5h7c1.4,0,2.5,1.1,2.5,2.5v42.2
	C104.2,68.1,103.1,69.2,101.7,69.2z"/>
<g>
	<g>
		<path class="st16" d="M48.8,20.9c-4.2-7.4-12.2-0.8-8.9,3.6"/>
		<g>
			<polygon class="st30" points="37.8,25.9 43,26.6 41,21.7 			"/>
		</g>
	</g>
</g>
<path class="st28" d="M60.3,69.2H47.2c-1.4,0-2.5-1.1-2.5-2.5V24.6c0-1.4,1.1-2.5,2.5-2.5h13.1c1.4,0,2.5,1.1,2.5,2.5v42.2
	C62.8,68.1,61.7,69.2,60.3,69.2z"/>
<g id="page1_00000042695620768137151140000011626198153603818925_" transform="matrix(1.13 0 0 1.13 -63.986043 -70.3425)">
	<g>
		<path id="g0-116_00000170960325718151998310000004495247733923082402_" class="st30" d="M102.4,77.4h0.7c0.1,0,0.2,0,0.2-0.2
			c0-0.1-0.1-0.1-0.2-0.1h-0.7l0.2-0.9c0-0.1,0-0.1,0-0.1c0-0.2-0.1-0.2-0.2-0.2c-0.1,0-0.3,0-0.3,0.3l-0.3,1h-0.7
			c-0.1,0-0.1,0-0.2,0l-0.1,0.1c0,0.1,0.1,0.1,0.2,0.1h0.7l-0.4,1.6c0,0.2-0.1,0.4-0.1,0.5c0,0.4,0.3,0.6,0.7,0.6
			c0.8,0,1.2-0.9,1.2-1c0,0,0-0.1-0.1-0.1s-0.1,0-0.1,0.1c-0.2,0.5-0.6,0.8-0.9,0.8c-0.2,0-0.3-0.2-0.3-0.3c0-0.1,0-0.1,0-0.2
			L102.4,77.4z"/>
	</g>
</g>
<g>
	<g id="page1_00000167374827370910896410000013436935722905497776_" transform="matrix(1.13 0 0 1.13 -63.986043 -69.87468)">
		<g>
			<path id="g0-94_00000002381430957903654520000004317382961603073727_" class="st1" d="M173.1,123.4l-1.2,0.8l0.2,0.4l1-0.5l1,0.5
				l0.2-0.4L173.1,123.4z"/>
		</g>
		<g>
			<path id="g0-120_00000008870029247852117420000014392593903004654234_" class="st1" d="M173.5,126.5L173.5,126.5l0.9-0.9
				c0.1-0.1,0.1-0.1,0.2-0.1c0.1,0,0.2,0,0.3,0h0.2V125c-0.2,0-0.7,0-0.7,0c-0.1,0-0.6,0-0.8,0v0.4c0.1,0,0.1,0,0.2,0l-0.6,0.6
				l-0.7-0.6h0.1V125c-0.1,0-0.6,0-0.9,0c0,0-0.6,0-0.8,0v0.4h0.5l1.1,1.1l-1,1c-0.1,0.1-0.1,0.1-0.5,0.1h-0.2v0.4
				c0.2,0,0.7,0,0.7,0c0.2,0,0.6,0,0.8,0v-0.4h-0.2l0.7-0.6l0.1-0.1l0.7,0.7l0,0v0.4c0.2,0,0.6,0,0.9,0c0,0,0.6,0,0.8,0v-0.4h-0.5
				L173.5,126.5z"/>
		</g>
		<g>
			<path id="g1-98_00000078762331259107157490000002439182758705158278_" class="st1" d="M177.2,125.9
				C177.2,125.8,177.2,125.8,177.2,125.9c0-0.2-0.1-0.2-0.2-0.2h-0.7c-0.1,0-0.1,0-0.1,0v0.1c0,0.1,0.1,0.1,0.2,0.1c0,0,0.1,0,0.2,0
				c0.1,0,0.1,0,0.1,0.1c0,0-0.1,0.2-0.1,0.4l-0.5,1.9c0,0.1,0,0.2,0,0.3c0,0.6,0.4,1,0.9,1c0.8,0,1.6-0.8,1.6-1.5c0-0.5-0.4-1-1-1
				c-0.2,0-0.5,0.1-0.8,0.3L177.2,125.9z M177.1,129.4c-0.2,0-0.5-0.1-0.5-0.6c0-0.2,0-0.4,0.1-0.5c0-0.1,0.1-0.4,0.1-0.5
				s0.4-0.5,0.9-0.5c0.2,0,0.5,0.1,0.5,0.6c0,0.2-0.1,0.7-0.3,1C177.6,129.2,177.3,129.4,177.1,129.4z"/>
		</g>
	</g>
	<rect x="140.8" y="27.5" class="st31" width="12.2" height="12.2"/>
	<rect x="134.9" y="33.4" class="st32" width="12.2" height="12.2"/>
	<rect x="129.1" y="39.3" class="st32" width="12.2" height="12.2"/>
	<rect x="122.9" y="45.4" class="st32" width="12.2" height="12.2"/>
	<rect x="116.8" y="51.5" class="st31" width="12.2" height="12.2"/>
	<line class="st5" x1="153.1" y1="39.8" x2="129.1" y2="63.8"/>
	<line class="st5" x1="153.1" y1="27.5" x2="129.1" y2="51.5"/>
	<line class="st5" x1="140.8" y1="27.5" x2="116.8" y2="51.5"/>
	<g id="page1_00000110433704933403857070000014186099973976277136_" transform="matrix(1.13 0 0 1.13 -63.986043 -66.128902)">
		<g>
			<path id="g1-72_00000104673947803769156360000006498039936254421158_" class="st1" d="M162.8,108.7c0-0.1,0-0.1,0.3-0.1
				c0.1,0,0.1,0,0.1-0.1l0,0c-0.1,0-0.3,0-0.4,0c-0.1,0-0.3,0-0.4,0c0,0-0.1,0-0.1,0.1c0,0,0,0,0.1,0h0.1c0.1,0,0.1,0,0.1,0
				s0,0,0,0.1l-0.2,0.7h-0.9l0.2-0.7c0-0.1,0-0.1,0.3-0.1c0.1,0,0.1,0,0.1-0.1l0,0c-0.1,0-0.3,0-0.4,0c-0.1,0-0.3,0-0.4,0
				c0,0-0.1,0-0.1,0.1c0,0,0,0,0.1,0h0.1c0.1,0,0.1,0,0.1,0s0,0,0,0.1l-0.4,1.6c0,0.1,0,0.1-0.3,0.1c-0.1,0-0.1,0-0.1,0.1l0,0
				c0.1,0,0.3,0,0.4,0c0.1,0,0.1,0,0.2,0c0.1,0,0.1,0,0.2,0c0,0,0.1,0,0.1-0.1c0,0,0,0-0.1,0s-0.2,0-0.2-0.1c0,0,0,0,0-0.1l0.2-0.8
				h0.9c-0.1,0.5-0.2,0.8-0.2,0.8c0,0.1-0.1,0.1-0.3,0.1c0,0-0.1,0-0.1,0.1l0,0c0.1,0,0.3,0,0.4,0c0.1,0,0.1,0,0.2,0
				c0.1,0,0.1,0,0.2,0c0,0,0.1,0,0.1-0.1c0,0,0,0-0.1,0s-0.2,0-0.2-0.1c0,0,0,0,0-0.1L162.8,108.7z"/>
		</g>
		<g>
			<path id="g0-2_00000167371919906927407600000016652173925370240181_" class="st1" d="M165.1,109.7l-0.6-0.6c0,0,0,0-0.1,0
				c0,0-0.1,0-0.1,0.1c0,0,0,0,0,0.1L165.1,109.7l-0.7,0.7c0,0,0,0,0,0.1c0,0,0,0.1,0.1,0.1c0,0,0,0,0.1,0l0.6-0.6l0.6,0.6l0,0
				c0,0,0.1,0,0.1-0.1l0,0C165.9,110.4,165.4,109.9,165.1,109.7l0.6-0.5l0.1-0.1l0,0c0,0,0-0.1-0.1-0.1c0,0,0,0-0.1,0L165.1,109.7z"
				/>
		</g>
		<g>
			<path id="g1-87_00000011743559609977885250000002153766172324808360_" class="st1" d="M169.8,108.8c0.1-0.1,0.1-0.2,0.3-0.3
				c0,0,0.1,0,0.1-0.1l0,0c-0.1,0-0.2,0-0.2,0c-0.1,0-0.2,0-0.3,0c0,0-0.1,0-0.1,0.1l0,0c0.1,0,0.2,0,0.2,0.1
				S169.8,108.7,169.8,108.8l-0.9,1.4l-0.1-1.5c0-0.1,0-0.1,0.2-0.1c0.1,0,0.1,0,0.1-0.1l0,0c-0.1,0-0.2,0-0.4,0c-0.1,0-0.2,0-0.3,0
				c0,0-0.1,0-0.1,0.1c0,0,0,0,0.1,0s0.2,0,0.2,0.1v0.2l-0.8,1.3l-0.1-1.5c0,0,0-0.1,0.2-0.1c0,0,0.1,0,0.1-0.1l0,0
				c-0.1,0-0.2,0-0.4,0c-0.1,0-0.2,0-0.3,0c0,0-0.1,0-0.1,0.1c0,0,0,0,0.1,0c0.2,0,0.2,0,0.2,0.1l0.1,1.9c0,0.1,0,0.1,0,0.1
				s0,0,0.1-0.1l0.9-1.6l0.1,1.5c0,0.1,0,0.1,0,0.1s0.1,0,0.1-0.1L169.8,108.8z"/>
		</g>
	</g>
	<g>
		<path id="g1-67_00000096757376898806029130000002206475947908916667_" class="st1" d="M153,49.3C153,49.2,153,49.2,153,49.3
			c0-0.1,0-0.2-0.1-0.2s-0.1,0-0.1,0.1l-0.6,0.6c-0.4-0.5-1-0.7-1.5-0.7c-1.9,0-3.7,1.6-3.7,3.3c0,1.3,1,2.2,2.4,2.2
			c0.8,0,1.5-0.3,1.9-0.7c0.7-0.6,0.9-1.3,0.9-1.3c0-0.1-0.1-0.1-0.1-0.1c-0.1,0-0.1,0-0.1,0.1c-0.4,1.2-1.5,1.7-2.4,1.7
			c-0.6,0-1.8-0.2-1.8-1.6c0-0.3,0.1-1.3,0.9-2.2c0.4-0.4,1.2-0.9,2.1-0.9c1,0,1.5,0.7,1.5,1.5c0,0.1,0,0.3,0,0.3
			c0,0.1,0.1,0.1,0.1,0.1c0.1,0,0.1,0,0.2-0.2L153,49.3z"/>
	</g>
</g>
<g>
	<g>
		<line class="st5" x1="31" y1="152.2" x2="175.1" y2="152.2"/>
		<g>
			<polygon class="st4" points="174.3,154.8 178.8,152.2 174.3,149.5 			"/>
		</g>
	</g>
</g>
<g>
	<g id="page1_00000107555676805257898030000002744385612981771187_" transform="matrix(1.13 0 0 1.13 -63.986043 -69.87468)">
		<g>
			<path id="g0-94_00000178206166289069451850000003201154658948839319_" class="st1" d="M169.8,216.6l-1.2,0.8l0.2,0.4l1-0.5l1,0.5
				l0.2-0.4L169.8,216.6z"/>
		</g>
		<g>
			<path id="g0-120_00000088837816769478684480000009606955315589577605_" class="st1" d="M170.2,219.6L170.2,219.6l0.9-0.9
				c0.1-0.1,0.1-0.1,0.2-0.1c0.1,0,0.2,0,0.3,0h0.2v-0.4c-0.2,0-0.7,0-0.7,0c-0.1,0-0.6,0-0.8,0v0.4c0.1,0,0.1,0,0.2,0l-0.6,0.6
				l-0.7-0.6h0.1v-0.4c-0.1,0-0.6,0-0.9,0c0,0-0.6,0-0.8,0v0.4h0.5l1.1,1.1l-1,1c-0.1,0.1-0.1,0.1-0.5,0.1h-0.2v0.4
				c0.2,0,0.7,0,0.7,0c0.2,0,0.6,0,0.8,0v-0.4h-0.2l0.7-0.6l0.1-0.1l0.7,0.7h-0.1v0.4c0.2,0,0.6,0,0.9,0c0,0,0.6,0,0.8,0v-0.4h-0.5
				L170.2,219.6z"/>
		</g>
		<g>
			<path id="g1-97_00000150097698278449572690000013415474194886944924_" class="st1" d="M175.4,220.5c0-0.1,0.1-0.3,0.1-0.3
				c0-0.1-0.1-0.2-0.2-0.2c-0.1,0-0.2,0.1-0.3,0.2c-0.1-0.1-0.3-0.3-0.7-0.3c-0.8,0-1.6,0.8-1.6,1.5c0,0.6,0.4,1,1,1
				c0.5,0,0.8-0.3,0.9-0.4c0.1,0.3,0.4,0.4,0.7,0.4c0.2,0,0.4-0.1,0.5-0.3s0.2-0.5,0.2-0.5c0-0.1-0.1-0.1-0.1-0.1
				c-0.1,0-0.1,0-0.1,0.1c-0.1,0.4-0.2,0.6-0.4,0.6s-0.2-0.1-0.2-0.3c0-0.1,0.1-0.3,0.1-0.4L175.4,220.5z M174.7,221.5
				c0,0.1,0,0.1-0.1,0.2c-0.2,0.2-0.5,0.4-0.8,0.4c-0.2,0-0.5-0.1-0.5-0.6c0-0.3,0.1-0.8,0.3-1.1s0.5-0.4,0.7-0.4s0.5,0.1,0.6,0.5
				L174.7,221.5z"/>
		</g>
	</g>
	<g>
		<path id="g1-67_00000147205456024726887800000018137099832717861769_" class="st1" d="M149.7,155.8c0-0.1,0-0.1,0-0.1
			s0-0.1-0.1-0.1s-0.1,0-0.1,0.1l-0.6,0.6c-0.4-0.5-1-0.7-1.5-0.7c-1.9,0-3.7,1.6-3.7,3.3c0,1.3,1,2.2,2.4,2.2
			c0.8,0,1.5-0.3,1.9-0.7c0.7-0.6,0.9-1.3,0.9-1.3c0-0.1-0.1-0.1-0.1-0.1c-0.1,0-0.1,0-0.1,0.1c-0.4,1.2-1.5,1.7-2.4,1.7
			c-0.6,0-1.8-0.2-1.8-1.6c0-0.3,0.1-1.3,0.9-2.2c0.4-0.4,1.2-0.9,2.1-0.9c1,0,1.5,0.7,1.5,1.5c0,0.1,0,0.3,0,0.3
			c0,0.1,0.1,0.1,0.1,0.1c0.1,0,0.1,0,0.2-0.2L149.7,155.8z"/>
	</g>
	<rect x="137.5" y="134" class="st33" width="12.2" height="12.2"/>
	<rect x="131.6" y="139.9" class="st34" width="12.2" height="12.2"/>
	<rect x="125.7" y="145.8" class="st34" width="12.2" height="12.2"/>
	<rect x="119.6" y="151.9" class="st34" width="12.2" height="12.2"/>
	<rect x="113.5" y="158" class="st33" width="12.2" height="12.2"/>
	<line class="st5" x1="149.7" y1="146.3" x2="125.7" y2="170.3"/>
	<line class="st5" x1="149.7" y1="134" x2="125.7" y2="158"/>
	<line class="st5" x1="137.5" y1="134" x2="113.5" y2="158"/>
	<g id="page1_00000092456309107833193590000012660809469347892915_" transform="matrix(1.13 0 0 1.13 -63.986043 -66.128902)">
		<g>
			<path id="g1-72_00000008849398301003392520000007549894556469908923_" class="st1" d="M159.9,202.9c0-0.1,0-0.1,0.3-0.1
				c0.1,0,0.1,0,0.1-0.1l0,0c-0.1,0-0.3,0-0.4,0c-0.1,0-0.3,0-0.4,0c0,0-0.1,0-0.1,0.1c0,0,0,0,0.1,0h0.1c0.1,0,0.1,0,0.1,0
				s0,0,0,0.1l-0.2,0.7h-0.9l0.2-0.7c0-0.1,0-0.1,0.3-0.1c0.1,0,0.1,0,0.1-0.1l0,0c-0.1,0-0.3,0-0.4,0c-0.1,0-0.3,0-0.4,0
				c0,0-0.1,0-0.1,0.1c0,0,0,0,0.1,0h0.1c0.1,0,0.1,0,0.1,0s0,0,0,0.1l-0.4,1.6c0,0.1,0,0.1-0.3,0.1c-0.1,0-0.1,0-0.1,0.1l0,0
				c0.1,0,0.3,0,0.4,0c0.1,0,0.1,0,0.2,0c0.1,0,0.1,0,0.2,0c0,0,0.1,0,0.1-0.1c0,0,0,0-0.1,0s-0.2,0-0.2-0.1c0,0,0,0,0-0.1l0.2-0.8
				h0.9c-0.1,0.5-0.2,0.8-0.2,0.8c0,0.1-0.1,0.1-0.3,0.1c0,0-0.1,0-0.1,0.1l0,0c0.1,0,0.3,0,0.4,0c0.1,0,0.1,0,0.2,0
				c0.1,0,0.1,0,0.2,0c0,0,0.1,0,0.1-0.1c0,0,0,0-0.1,0s-0.2,0-0.2-0.1c0,0,0,0,0-0.1L159.9,202.9z"/>
		</g>
		<g>
			<path id="g0-2_00000017495640440583896030000005294415844381605763_" class="st1" d="M162.2,203.9l-0.6-0.6c0,0,0,0-0.1,0
				c0,0-0.1,0-0.1,0.1c0,0,0,0,0,0.1L162.2,203.9l-0.7,0.7c0,0,0,0,0,0.1c0,0,0,0.1,0.1,0.1c0,0,0,0,0.1,0l0.6-0.6l0.6,0.6l0,0
				c0,0,0.1,0,0.1-0.1l0,0C162.9,204.7,162.4,204.2,162.2,203.9l0.6-0.5l0.1-0.1l0,0c0,0,0-0.1-0.1-0.1c0,0,0,0-0.1,0L162.2,203.9z"
				/>
		</g>
		<g>
			<path id="g1-87_00000129896318488999926230000016531660175511367086_" class="st1" d="M166.8,203.1c0.1-0.1,0.1-0.2,0.3-0.3
				c0,0,0.1,0,0.1-0.1l0,0c-0.1,0-0.2,0-0.2,0c-0.1,0-0.2,0-0.3,0c0,0-0.1,0-0.1,0.1l0,0c0.1,0,0.2,0,0.2,0.1
				C166.8,203,166.8,203,166.8,203.1l-0.9,1.4l-0.1-1.5c0-0.1,0-0.1,0.2-0.1c0.1,0,0.1,0,0.1-0.1l0,0c-0.1,0-0.2,0-0.4,0
				c-0.1,0-0.2,0-0.3,0c0,0-0.1,0-0.1,0.1c0,0,0,0,0.1,0s0.2,0,0.2,0.1v0.2l-0.8,1.3l-0.1-1.5c0,0,0-0.1,0.2-0.1c0,0,0.1,0,0.1-0.1
				l0,0c-0.1,0-0.2,0-0.4,0c-0.1,0-0.2,0-0.3,0c0,0-0.1,0-0.1,0.1c0,0,0,0,0.1,0c0.2,0,0.2,0,0.2,0.1l0.1,1.9c0,0.1,0,0.1,0,0.1
				s0,0,0.1-0.1l0.9-1.6l0.1,1.5c0,0.1,0,0.1,0,0.1s0.1,0,0.1-0.1L166.8,203.1z"/>
		</g>
	</g>
</g>
<g>
	<g>
		<path id="g0-120_00000072962110200662004840000017254664450495233673_" class="st1" d="M21.4,151.4L21.4,151.4l1-1.1
			c0.1-0.1,0.1-0.1,0.2-0.1c0.1,0,0.2,0,0.3,0h0.2v-0.4c-0.2,0-0.7,0-0.8,0s-0.7,0-0.9,0v0.4c0.1,0,0.1,0,0.2,0l-0.7,0.7l-0.7-0.7
			h0.2v-0.4c-0.1,0-0.6,0-1,0c0,0-0.6,0-0.9,0v0.4h0.6l1.3,1.2l-1.2,1.1c-0.1,0.1-0.1,0.1-0.5,0.1h-0.2v0.4c0.2,0,0.7,0,0.8,0
			c0.2,0,0.7,0,0.9,0v-0.4H20l0.8-0.7l0.1-0.1l0.8,0.8h-0.2v0.4c0.2,0,0.7,0,1,0c0,0,0.6,0,0.9,0v-0.4h-0.6L21.4,151.4z"/>
	</g>
	<g>
		<path id="g1-97_00000023994728438839432540000012574004533034264467_" class="st1" d="M27.2,152.4c0-0.1,0.1-0.4,0.1-0.4
			c0-0.1-0.1-0.2-0.2-0.2c-0.1,0-0.3,0.1-0.3,0.2c-0.1-0.2-0.4-0.4-0.7-0.4c-0.9,0-1.8,0.9-1.8,1.7c0,0.6,0.5,1.1,1.1,1.1
			c0.5,0,0.9-0.4,1-0.4c0.1,0.3,0.5,0.4,0.7,0.4s0.4-0.1,0.5-0.3c0.2-0.2,0.2-0.6,0.2-0.6c0-0.1-0.1-0.1-0.1-0.1
			c-0.1,0-0.1,0-0.1,0.1c-0.1,0.5-0.3,0.7-0.5,0.7s-0.2-0.1-0.2-0.3c0-0.1,0.1-0.3,0.1-0.5L27.2,152.4z M26.4,153.6
			c0,0.1,0,0.1-0.1,0.2c-0.2,0.3-0.6,0.5-0.9,0.5c-0.2,0-0.5-0.1-0.5-0.6c0-0.3,0.1-0.9,0.4-1.3c0.2-0.3,0.6-0.5,0.8-0.5
			c0.3,0,0.5,0.2,0.6,0.5L26.4,153.6z"/>
	</g>
</g>
<g>
	<g>
		<path id="g0-120_00000054965330561358242710000012488952471802701757_" class="st1" d="M21.7,44.7L21.7,44.7l1-1.1
			c0.1-0.1,0.1-0.1,0.2-0.1c0.1,0,0.2,0,0.3,0h0.2v-0.4c-0.2,0-0.7,0-0.8,0s-0.7,0-0.9,0v0.4c0.1,0,0.1,0,0.2,0l-0.7,0.7l-0.7-0.7
			h0.2v-0.4c-0.1,0-0.6,0-1,0c0,0-0.6,0-0.9,0v0.4h0.6l1.3,1.2l-1.2,1.1c-0.1,0.1-0.1,0.1-0.5,0.1h-0.2v0.4c0.2,0,0.7,0,0.8,0
			c0.2,0,0.7,0,0.9,0V46h-0.2l0.8-0.7l0.1-0.1L22,46h-0.2v0.4c0.2,0,0.7,0,1,0c0,0,0.6,0,0.9,0V46h-0.6L21.7,44.7z"/>
	</g>
	<g>
		<path id="g1-98_00000143616230535747140770000011375215123285291408_" class="st1" d="M26,44.1C26,44,26,44,26,44.1
			c0-0.2-0.1-0.2-0.2-0.2L25,44c-0.1,0-0.1,0-0.1,0v0.1c0,0.1,0.1,0.1,0.2,0.1c0,0,0.1,0,0.2,0c0.1,0,0.1,0,0.1,0.1
			c0,0-0.1,0.3-0.1,0.4l-0.5,2.1c0,0.1,0,0.2,0,0.4c0,0.6,0.5,1.1,1.1,1.1c0.9,0,1.8-0.9,1.8-1.7c0-0.6-0.4-1.1-1.1-1.1
			c-0.3,0-0.6,0.1-0.9,0.3L26,44.1z M25.8,48c-0.3,0-0.6-0.2-0.6-0.7c0-0.2,0-0.4,0.1-0.6c0-0.1,0.1-0.5,0.1-0.5
			c0-0.1,0.5-0.6,1-0.6c0.3,0,0.5,0.2,0.5,0.6c0,0.2-0.1,0.8-0.3,1.2C26.4,47.8,26.1,48,25.8,48z"/>
	</g>
</g>
<path class="st28" d="M75.2,175.7h-7c-1.4,0-2.5-1.1-2.5-2.5V131c0-1.4,1.1-2.5,2.5-2.5h7c1.4,0,2.5,1.1,2.5,2.5v42.2
	C77.7,174.6,76.6,175.7,75.2,175.7z"/>
<g>
	<g>
		<line class="st2" x1="317" y1="135.4" x2="317" y2="62.1"/>
		<g>
			<polygon class="st4" points="319.7,134.7 317,139.2 314.4,134.7 			"/>
		</g>
	</g>
</g>
<path class="st0" d="M198.7,160.7h-17.6c-1.1,0-2-0.9-2-2v-13c0-1.1,0.9-2,2-2h17.6c1.1,0,2,0.9,2,2v13
	C200.7,159.8,199.8,160.7,198.7,160.7z"/>
<g class="st35">
	<circle class="st36" cx="183.3" cy="149.9" r="1.4"/>
	<circle class="st37" cx="196.5" cy="149.9" r="1.4"/>
	<circle class="st37" cx="196.5" cy="154.3" r="1.4"/>
	<circle class="st38" cx="190" cy="152.2" r="1.4"/>
	<circle class="st38" cx="190" cy="147.9" r="1.4"/>
	<circle class="st36" cx="183.3" cy="154.3" r="1.4"/>
	<circle class="st38" cx="190" cy="156.4" r="1.4"/>
	<line class="st39" x1="184.7" y1="149.9" x2="188.6" y2="156.4"/>
	<line class="st39" x1="184.7" y1="154.3" x2="188.6" y2="156.4"/>
	<line class="st39" x1="184.7" y1="149.9" x2="188.6" y2="152.2"/>
	<line class="st39" x1="184.7" y1="149.9" x2="188.6" y2="147.9"/>
	<line class="st39" x1="188.6" y1="152.2" x2="184.7" y2="154.3"/>
	<line class="st39" x1="191.4" y1="147.9" x2="195.1" y2="149.9"/>
	<line class="st39" x1="191.4" y1="152.2" x2="195.1" y2="154.3"/>
	<line class="st39" x1="191.5" y1="156.4" x2="195.1" y2="154.3"/>
	<line class="st39" x1="195.1" y1="154.3" x2="191.4" y2="147.9"/>
	<line class="st39" x1="184.7" y1="154.3" x2="188.6" y2="147.9"/>
	<line class="st39" x1="195.1" y1="149.9" x2="191.4" y2="152.2"/>
	<line class="st39" x1="195.1" y1="149.9" x2="191.5" y2="156.4"/>
</g>
<g id="page1_00000016794031391730422440000000387052937062182563_" transform="matrix(1.13 0 0 1.13 -63.986043 -69.80688)">
	<g>
		<path id="g0-71_00000099628069173768134310000016381862190386086059_" class="st1" d="M225.9,197.6c-0.1,0.4-0.3,0.9-0.6,1.3
			c-0.4,0.5-0.6,0.6-0.9,0.6c-0.2,0-0.8,0-1.4-0.3c-0.1,0-0.1,0-0.2,0c-0.3,0-0.7,0.3-0.7,0.5c0,0.1,0.6,0.3,0.7,0.3
			c0.4,0.1,0.7,0.1,1,0.1c0.9,0,1.7-0.4,2.4-1.5c0.6-1,1-2.7,1-2.7s0-0.1-0.1-0.1s-0.2,0-0.4,0.1c-0.2,0.2-0.3,0.2-0.3,0.4
			c-0.3,0.8-1,1.5-1.9,1.5c-1.1,0-1.7-0.8-1.7-1.7c0-0.3,0.1-2.6,2.7-2.6c0.1,0,0.4,0,0.7,0.1c0.1,0,0.4,0.1,0.4,0.4
			c0,0.2-0.4,0.7-0.5,0.8c0,0-0.1,0.1-0.1,0.2c0,0.1,0.1,0.1,0.1,0.1c0.3,0,0.6-0.3,0.8-0.5c0.3-0.4,0.5-0.7,0.5-0.9
			c0-0.5-0.5-0.6-1.3-0.6c-2.4,0-4.2,1.8-4.2,3.6c0,1.2,0.8,1.9,1.9,1.9C224.4,198.4,225.2,198.1,225.9,197.6z"/>
	</g>
</g>
<line class="st5" x1="201.5" y1="152.2" x2="224.7" y2="152.2"/>
<line class="st5" x1="224.7" y1="152.2" x2="227.7" y2="161.2"/>
<circle class="st17" cx="224.7" cy="152.2" r="1.4"/>
<g>
	<g>
		<path class="st40" d="M227.9,161.3c0-1.9,31.1-12,55.7-4.3"/>
		<g>
			<polygon class="st26" points="282.5,158.6 285.9,157.8 283.6,155.2 			"/>
		</g>
	</g>
</g>
<g>
	<circle class="st24" cx="227.9" cy="144.1" r="1.4"/>
	<circle class="st17" cx="227.9" cy="161.3" r="1.4"/>
</g>
<g>
	<g>
		<path class="st40" d="M292.5,164.4c10.1,9.4,28.9,10.5,35.9,0.7"/>
		<g>
			<polygon class="st26" points="329.6,166.4 329.7,162.9 326.6,164.6 			"/>
		</g>
	</g>
</g>
<path class="st5" d="M231.1,163.9h-7.8c-1.1,0-2-0.9-2-2v-19.1c0-1.1,0.9-2,2-2h7.8c1.1,0,2,0.9,2,2v19.1
	C233.1,163,232.2,163.9,231.1,163.9z"/>
<path class="st5" d="M334.7,163.9h-7.8c-1.1,0-2-0.9-2-2v-19.1c0-1.1,0.9-2,2-2h7.8c1.1,0,2,0.9,2,2v19.1
	C336.7,163,335.8,163.9,334.7,163.9z"/>
<line class="st5" x1="7.1" y1="98.9" x2="30.7" y2="98.9"/>
<path class="st28" d="M19.8,117.1h-7c-1.4,0-2.5-1.1-2.5-2.5V83.2c0-1.4,1.1-2.5,2.5-2.5h7c1.4,0,2.5,1.1,2.5,2.5v31.4
	C22.3,116,21.2,117.1,19.8,117.1z"/>
<line class="st5" x1="30.7" y1="45.6" x2="30.7" y2="152.2"/>
<path class="st29" d="M34.2,112.4h-7c-1.4,0-2.5-1.1-2.5-2.5v-22c0-1.4,1.1-2.5,2.5-2.5h7c1.4,0,2.5,1.1,2.5,2.5V110
	C36.7,111.3,35.6,112.4,34.2,112.4z"/>
<g>
	<path class="st41" d="M106.6,72H36.8c-0.8,0-1.4-0.6-1.4-1.4V14c0-0.8,0.6-1.4,1.4-1.4h69.9c0.8,0,1.4,0.6,1.4,1.4v56.7
		C108,71.4,107.4,72,106.6,72z"/>
</g>
<g>
	<path id="g0-120_00000156560511179219577690000018182232272728709796_" class="st1" d="M3.8,99.3l0.8,0.8H4.4v0.4c0.2,0,0.7,0,1,0
		c0,0,0.6,0,0.9,0v-0.4H5.7l-1.3-1.3l-0.1-0.1l1-1c0.1-0.1,0.1-0.1,0.2-0.1c0.1,0,0.2,0,0.3,0h0.4v-0.4c-0.2,0-0.7,0-0.8,0
		s-0.7,0-0.9,0v0.4c0.1,0,0.1,0,0.2,0L4,98.3l-0.7-0.7h0.2v-0.4c-0.1,0-0.6,0-1,0c0,0-0.6,0-0.9,0v0.4h0.6l1.3,1.2l-1.2,1.1
		C2.2,100,2.2,100,1.8,100H1.6v0.4c0.2,0,0.7,0,0.8,0c0.2,0,0.7,0,0.9,0V100H3.1L3.8,99.3L3.8,99.3"/>
</g>
<path class="st0" d="M307.9,82.2H196.5c-0.8,0-1.4-0.6-1.4-1.4V18.4c0-0.8,0.6-1.4,1.4-1.4h111.4c0.8,0,1.4,0.6,1.4,1.4v62.4
	C309.3,81.5,308.7,82.2,307.9,82.2z"/>
<g>
	<path id="g1-69_00000003085721852706076700000009446446975718570428_" class="st1" d="M300.3,22.6c-1.6,0.8-1.7,1.8-1.7,2
		c0,0.7,0.8,1,1.6,1c1.5,0,2.7-1.2,2.7-1.4c0-0.1-0.1-0.1-0.1-0.1s-0.3,0-0.6,0.3c-0.1,0.2-0.6,0.6-1.4,0.6c-0.5,0-1.4-0.2-1.4-0.8
		c0-0.3,0.2-0.7,0.5-1c0.5-0.5,1.3-0.5,1.4-0.5c0.2,0,0.3,0,0.5-0.1c0.1-0.1,0.3-0.2,0.3-0.3c0-0.1-0.1-0.1-0.2-0.1
		c-0.5,0-1.5-0.1-1.5-0.9c0-0.1,0-0.5,0.4-0.7c0.2-0.1,0.6-0.2,0.9-0.2c0.2,0,0.4,0,0.6,0.1c0.1,0,0.3,0.1,0.3,0.3
		c0,0.1,0,0.2-0.1,0.2v0.1c0,0.1,0,0.1,0.1,0.1c0.2,0,0.8-0.3,0.8-0.8c0-0.4-0.5-0.6-1-0.6c-1.4,0-2.7,0.9-2.7,1.8
		C299.6,22.3,300.2,22.5,300.3,22.6z"/>
	<g>
		<path id="g5-50_00000049905160312131830590000016785350048286666125_" class="st1" d="M307.2,25.6h-0.3c0,0.1-0.1,0.5-0.2,0.6
			c-0.1,0-0.6,0-0.7,0h-1.3c0.4-0.3,0.9-0.7,1.3-0.9c0.6-0.4,1.1-0.8,1.1-1.5c0-0.8-0.8-1.3-1.7-1.3c-0.9,0-1.5,0.5-1.5,1.1
			c0,0.3,0.3,0.4,0.4,0.4c0.2,0,0.4-0.1,0.4-0.4c0-0.2-0.2-0.4-0.4-0.4c0.2-0.3,0.6-0.5,1-0.5c0.6,0,1.2,0.4,1.2,1
			c0,0.5-0.4,1-0.9,1.4l-1.6,1.3c-0.1,0.1-0.1,0.1-0.1,0.1v0.2h3L307.2,25.6z"/>
	</g>
</g>
<path class="st0" d="M280,95.1H168.6c-0.8,0-1.4-0.6-1.4-1.4V31.3c0-0.8,0.6-1.4,1.4-1.4H280c0.8,0,1.4,0.6,1.4,1.4v62.4
	C281.4,94.5,280.8,95.1,280,95.1z"/>
<line class="st5" x1="169.2" y1="81.3" x2="230.5" y2="81.3"/>
<line class="st5" x1="169.2" y1="45.5" x2="230.5" y2="45.5"/>
<path class="st28" d="M264.7,87h-7c-1.4,0-2.5-1.1-2.5-2.5V42.3c0-1.4,1.1-2.5,2.5-2.5h7c1.4,0,2.5,1.1,2.5,2.5v42.2
	C267.2,85.9,266.1,87,264.7,87z"/>
<path class="st28" d="M171.2,49v-7c0-1.4,1.1-2.5,2.5-2.5h42.2c1.4,0,2.5,1.1,2.5,2.5v7c0,1.4-1.1,2.5-2.5,2.5h-42.2
	C172.3,51.5,171.2,50.3,171.2,49z"/>
<line class="st13" x1="231.6" y1="55.9" x2="231.6" y2="69.3"/>
<g>
	<circle class="st6" cx="231.6" cy="62.6" r="4.7"/>
	<path class="st7" d="M229.2,65l4.8-4.8L229.2,65z"/>
	<path class="st7" d="M234,65l-4.8-4.8L234,65z"/>
</g>
<rect x="230.2" y="71.9" class="st42" width="12.2" height="12.2"/>
<rect x="227.9" y="74.3" class="st43" width="12.2" height="12.2"/>
<rect x="225.5" y="76.6" class="st42" width="12.2" height="12.2"/>
<line class="st44" x1="242.5" y1="84.1" x2="237.8" y2="88.8"/>
<line class="st44" x1="242.5" y1="71.9" x2="237.6" y2="76.8"/>
<line class="st44" x1="230.2" y1="71.9" x2="225.5" y2="76.6"/>
<g id="page1_00000101101250997907971410000008213017203674056857_" transform="matrix(1.13 0 0 1.13 -63.986043 -66.128902)">
	<g>
		<path id="g1-72_00000092453978618487447090000012403290440990967702_" class="st1" d="M259,130.9c0-0.1,0-0.1,0.3-0.1
			c0.1,0,0.1,0,0.1-0.1l0,0c-0.1,0-0.3,0-0.4,0s-0.3,0-0.4,0c0,0-0.1,0-0.1,0.1c0,0,0,0,0.1,0h0.1c0.1,0,0.1,0,0.1,0s0,0,0,0.1
			l-0.2,0.7h-1l0.2-0.7c0-0.1,0-0.1,0.3-0.1c0.1,0,0.1,0,0.1-0.1l0,0c-0.1,0-0.3,0-0.4,0s-0.3,0-0.4,0c0,0-0.1,0-0.1,0.1
			c0,0,0,0,0.1,0h0.1c0.1,0,0.1,0,0.1,0s0,0,0,0.1l-0.4,1.6c0,0.1,0,0.1-0.3,0.1c-0.1,0-0.1,0-0.1,0.1l0,0c0.1,0,0.3,0,0.4,0
			s0.1,0,0.2,0s0.1,0,0.2,0c0,0,0.1,0,0.1-0.1c0,0,0,0-0.1,0s-0.2,0-0.2-0.1c0,0,0,0,0-0.1l0.2-0.8h0.9c-0.1,0.5-0.2,0.8-0.2,0.8
			c0,0.1-0.1,0.1-0.3,0.1c0,0-0.1,0-0.1,0.1l0,0c0.1,0,0.3,0,0.4,0s0.1,0,0.2,0s0.1,0,0.2,0c0,0,0.1,0,0.1-0.1c0,0,0,0-0.1,0
			s-0.2,0-0.2-0.1c0,0,0,0,0-0.1L259,130.9z"/>
	</g>
	<g>
		<path id="g0-2_00000088123876218712893830000006625462403001894310_" class="st1" d="M261.3,131.9l-0.6-0.6c0,0,0,0-0.1,0
			c0,0-0.1,0-0.1,0.1c0,0,0,0,0,0.1L261.3,131.9l-0.7,0.7c0,0,0,0,0,0.1c0,0,0,0.1,0.1,0.1c0,0,0,0,0.1,0l0.6-0.6l0.6,0.6l0,0
			c0,0,0.1,0,0.1-0.1l0,0C262.1,132.6,261.6,132.1,261.3,131.9l0.6-0.5l0.1-0.1l0,0c0,0,0-0.1-0.1-0.1c0,0,0,0-0.1,0L261.3,131.9z"
			/>
	</g>
	<g>
		<path id="g1-87_00000179609751538933870940000012321673470229296315_" class="st1" d="M266,131c0.1-0.1,0.1-0.2,0.3-0.3
			c0,0,0.1,0,0.1-0.1l0,0c-0.1,0-0.2,0-0.2,0c-0.1,0-0.2,0-0.3,0c0,0-0.1,0-0.1,0.1l0,0c0.1,0,0.2,0,0.2,0.1
			C266,130.9,266,130.9,266,131l-0.9,1.4l-0.1-1.5c0-0.1,0-0.1,0.2-0.1c0.1,0,0.1,0,0.1-0.1l0,0c-0.1,0-0.2,0-0.4,0
			c-0.1,0-0.2,0-0.3,0c0,0-0.1,0-0.1,0.1c0,0,0,0,0.1,0s0.2,0,0.2,0.1v0.2l-0.8,1.3l-0.1-1.5c0,0,0-0.1,0.2-0.1c0,0,0.1,0,0.1-0.1
			l0,0c-0.1,0-0.2,0-0.4,0c-0.1,0-0.2,0-0.3,0c0,0-0.1,0-0.1,0.1c0,0,0,0,0.1,0c0.2,0,0.2,0,0.2,0.1l0.1,1.9c0,0.1,0,0.1,0,0.1
			s0,0,0.1-0.1l0.9-1.6l0.1,1.5c0,0.1,0,0.1,0,0.1s0.1,0,0.1-0.1L266,131z"/>
	</g>
</g>
<g id="page1_00000011012193742486923210000013462724871823891859_" transform="matrix(1.13 0 0 1.13 -63.986043 -69.94926)">
	<g>
		<path id="g0-82_00000083071446350088239700000006862862727631984273_" class="st30" d="M273.1,136c0.1-0.2,0.1-0.2,0.3-0.2h0.7
			c0.7,0,1.1,0.2,1.1,0.7c0,0.2-0.1,0.7-0.6,1c-0.3,0.1-0.6,0.2-1.1,0.2h-0.9L273.1,136z M274.4,137.8c0.6-0.1,1.5-0.6,1.5-1.2
			c0-0.6-0.7-1-1.7-1h-2.1c-0.1,0-0.2,0-0.2,0.2c0,0.1,0.1,0.1,0.2,0.1s0.3,0,0.4,0c0,0.1,0,0.1,0,0.2l-0.9,3.5
			c-0.1,0.2-0.1,0.3-0.6,0.3c-0.1,0-0.2,0-0.2,0s-0.1,0.1-0.1,0.2c0,0,0,0.1,0.1,0.1c0.2,0,0.7,0,0.9,0c0.4,0,0,0,0.5,0
			c0.1,0,0.3,0,0.4,0h0.1v-0.1c0-0.1-0.1-0.1-0.2-0.1s-0.2,0-0.3,0c-0.1,0-0.2,0-0.2-0.1v-0.1l0.4-1.7h1c0.6,0,0.9,0.3,0.9,0.6
			c0,0.1-0.1,0.3-0.1,0.5c-0.1,0.3-0.1,0.4-0.1,0.5c0,0.5,0.5,0.7,1,0.7c0.6,0,0.9-0.6,0.9-0.8c0,0,0-0.1-0.1-0.1s-0.1,0.1-0.1,0.1
			c-0.2,0.5-0.5,0.6-0.6,0.6c-0.2,0-0.3-0.1-0.3-0.5c0-0.2,0-0.5,0.1-0.7c0-0.1,0-0.2,0-0.3C275.1,138.1,274.7,137.9,274.4,137.8z"
			/>
	</g>
	<g>
		<path id="g1-49_00000142153764275269046110000008755252311551675816_" class="st30" d="M278.5,137.8c0-0.2,0-0.2-0.2-0.2
			c-0.4,0.4-1,0.4-1.1,0.4h-0.1v0.2h0.1c0.1,0,0.5,0,0.8-0.2v2.8c0,0.2,0,0.2-0.6,0.2h-0.3v0.2c0.3,0,0.8,0,1.1,0s0.8,0,1.1,0V141
			H279c-0.6,0-0.6-0.1-0.6-0.2v-3H278.5z"/>
	</g>
</g>
<line class="st5" x1="230.2" y1="36.1" x2="225.5" y2="40.8"/>
<rect x="230.2" y="36.1" class="st45" width="12.2" height="12.2"/>
<rect x="227.8" y="38.4" class="st46" width="12.2" height="12.2"/>
<rect x="225.5" y="40.8" class="st45" width="12.2" height="12.2"/>
<g id="page1_00000005979480523726115250000015298021524807090357_" transform="matrix(1.13 0 0 1.13 -63.986043 -66.128902)">
	<g>
		<path id="g1-72_00000070825860001621400640000002959177401963988124_" class="st1" d="M259,99.2c0-0.1,0-0.1,0.3-0.1
			c0.1,0,0.1,0,0.1-0.1l0,0c-0.1,0-0.3,0-0.4,0s-0.3,0-0.4,0c0,0-0.1,0-0.1,0.1c0,0,0,0,0.1,0h0.1c0.1,0,0.1,0,0.1,0s0,0,0,0.1
			l-0.2,0.7h-1l0.2-0.7c0-0.1,0-0.1,0.3-0.1c0.1,0,0.1,0,0.1-0.1l0,0c-0.1,0-0.3,0-0.4,0s-0.3,0-0.4,0c0,0-0.1,0-0.1,0.1
			c0,0,0,0,0.1,0h0.1c0.1,0,0.1,0,0.1,0s0,0,0,0.1l-0.4,1.6c0,0.1,0,0.1-0.3,0.1c-0.1,0-0.1,0-0.1,0.1l0,0c0.1,0,0.3,0,0.4,0
			s0.1,0,0.2,0s0.1,0,0.2,0c0,0,0.1,0,0.1-0.1c0,0,0,0-0.1,0s-0.2,0-0.2-0.1c0,0,0,0,0-0.1l0.2-0.8h0.9c-0.1,0.5-0.2,0.8-0.2,0.8
			c0,0.1-0.1,0.1-0.3,0.1c0,0-0.1,0-0.1,0.1l0,0c0.1,0,0.3,0,0.4,0s0.1,0,0.2,0s0.1,0,0.2,0c0,0,0.1,0,0.1-0.1c0,0,0,0-0.1,0
			s-0.2,0-0.2-0.1c0,0,0,0,0-0.1L259,99.2z"/>
	</g>
	<g>
		<path id="g0-2_00000002342727052722985970000016469187551159106728_" class="st1" d="M261.3,100.2l-0.6-0.6c0,0,0,0-0.1,0
			c0,0-0.1,0-0.1,0.1c0,0,0,0,0,0.1L261.3,100.2l-0.7,0.7c0,0,0,0,0,0.1c0,0,0,0.1,0.1,0.1c0,0,0,0,0.1,0l0.6-0.6l0.6,0.6l0,0
			c0,0,0.1,0,0.1-0.1l0,0C262,100.9,261.5,100.4,261.3,100.2l0.6-0.5l0.1-0.1l0,0c0,0,0-0.1-0.1-0.1c0,0,0,0-0.1,0L261.3,100.2z"/>
	</g>
	<g>
		<path id="g1-87_00000087404187609228618200000000039703841651894447_" class="st1" d="M265.9,99.3c0.1-0.1,0.1-0.2,0.3-0.3
			c0,0,0.1,0,0.1-0.1l0,0c-0.1,0-0.2,0-0.2,0c-0.1,0-0.2,0-0.3,0c0,0-0.1,0-0.1,0.1l0,0c0.1,0,0.2,0,0.2,0.1S265.9,99.2,265.9,99.3
			l-0.9,1.4l-0.1-1.5c0-0.1,0-0.1,0.2-0.1c0.1,0,0.1,0,0.1-0.1l0,0c-0.1,0-0.2,0-0.4,0c-0.1,0-0.2,0-0.3,0c0,0-0.1,0-0.1,0.1
			c0,0,0,0,0.1,0s0.2,0,0.2,0.1v0.2l-0.8,1.3l-0.1-1.5c0,0,0-0.1,0.2-0.1c0,0,0.1,0,0.1-0.1l0,0c-0.1,0-0.2,0-0.4,0
			c-0.1,0-0.2,0-0.3,0c0,0-0.1,0-0.1,0.1c0,0,0,0,0.1,0c0.2,0,0.2,0,0.2,0.1l0.1,1.9c0,0.1,0,0.1,0,0.1s0,0,0.1-0.1l0.9-1.6l0.1,1.5
			c0,0.1,0,0.1,0,0.1s0.1,0,0.1-0.1L265.9,99.3z"/>
	</g>
</g>
<line class="st5" x1="242.4" y1="48.3" x2="237.7" y2="53"/>
<g id="page1_00000083781635794552152920000012091616608745330055_" transform="matrix(1.13 0 0 1.13 -63.986043 -69.94926)">
	<g>
		<path id="g0-82_00000025423750574487739320000002756373071105113493_" class="st30" d="M273.1,104.3c0.1-0.2,0.1-0.2,0.3-0.2h0.7
			c0.7,0,1.1,0.2,1.1,0.7c0,0.2-0.1,0.7-0.6,1c-0.3,0.1-0.6,0.2-1.1,0.2h-0.9L273.1,104.3z M274.4,106.1c0.6-0.1,1.5-0.6,1.5-1.2
			s-0.7-1-1.7-1h-2.1c-0.1,0-0.2,0-0.2,0.2c0,0.1,0.1,0.1,0.2,0.1s0.3,0,0.4,0c0,0.1,0,0.1,0,0.2l-0.9,3.5c-0.1,0.2-0.1,0.3-0.6,0.3
			c-0.1,0-0.2,0-0.2,0s-0.1,0.1-0.1,0.2c0,0,0,0.1,0.1,0.1c0.2,0,0.7,0,0.9,0c0.4,0,0,0,0.5,0c0.1,0,0.3,0,0.4,0h0.1v-0.1
			c0-0.1-0.1-0.1-0.2-0.1s-0.2,0-0.3,0c-0.1,0-0.2,0-0.2-0.1v-0.1l0.4-1.7h1c0.6,0,0.9,0.3,0.9,0.6c0,0.1-0.1,0.3-0.1,0.5
			c-0.1,0.3-0.1,0.4-0.1,0.5c0,0.5,0.5,0.7,1,0.7c0.6,0,0.9-0.6,0.9-0.8c0,0,0-0.1-0.1-0.1s-0.1,0.1-0.1,0.1
			c-0.2,0.5-0.5,0.6-0.6,0.6c-0.2,0-0.3-0.1-0.3-0.5c0-0.2,0-0.5,0.1-0.7c0-0.1,0-0.2,0-0.3C275.1,106.4,274.7,106.2,274.4,106.1z"
			/>
	</g>
	<g>
		<path id="g1-49_00000039101995213368901380000018045452738448643466_" class="st30" d="M278.5,106.1c0-0.2,0-0.2-0.2-0.2
			c-0.4,0.4-1,0.4-1.1,0.4h-0.1v0.2h0.1c0.1,0,0.5,0,0.8-0.2v2.8c0,0.2,0,0.2-0.6,0.2h-0.3v0.2c0.3,0,0.8,0,1.1,0s0.8,0,1.1,0v-0.2
			H279c-0.6,0-0.6-0.1-0.6-0.2v-3H278.5z"/>
	</g>
</g>
<line class="st5" x1="242.4" y1="36.2" x2="237.8" y2="40.9"/>
<path class="st28" d="M171.2,84.8v-7c0-1.4,1.1-2.5,2.5-2.5h42.2c1.4,0,2.5,1.1,2.5,2.5v7c0,1.4-1.1,2.5-2.5,2.5h-42.2
	C172.3,87.3,171.2,86.2,171.2,84.8z"/>
<line class="st5" x1="236.3" y1="62.6" x2="255.7" y2="62.6"/>
<g>
	<g>
		<path id="g1-69_00000101795524109633565600000017578552434728562054_" class="st1" d="M272.6,35.5c-1.6,0.8-1.7,1.8-1.7,2
			c0,0.7,0.8,1,1.6,1c1.5,0,2.7-1.2,2.7-1.4c0-0.1-0.1-0.1-0.1-0.1s-0.3,0-0.6,0.3c-0.1,0.2-0.6,0.6-1.4,0.6c-0.5,0-1.4-0.2-1.4-0.8
			c0-0.3,0.2-0.7,0.5-1c0.6-0.5,1.3-0.5,1.4-0.5c0.2,0,0.3,0,0.5-0.1c0.1-0.1,0.3-0.2,0.3-0.3s-0.1-0.1-0.2-0.1
			c-0.5,0-1.5-0.1-1.5-0.9c0-0.1,0-0.6,0.4-0.8c0.2-0.1,0.6-0.2,0.9-0.2c0.2,0,0.4,0,0.6,0.1c0.1,0,0.3,0.1,0.3,0.3
			c0,0.1,0,0.2-0.1,0.2v0.1c0,0.1,0,0.1,0.1,0.1c0.2,0,0.8-0.3,0.8-0.8c0-0.4-0.5-0.6-1-0.6c-1.4,0-2.7,0.9-2.7,1.8
			C271.8,35.2,272.5,35.5,272.6,35.5z"/>
	</g>
	<g>
		<path id="g5-49_00000144317281033042338140000003164156974043142792_" class="st1" d="M278.3,35.7c0-0.2,0-0.2-0.2-0.2
			c-0.5,0.4-1.2,0.4-1.3,0.4h-0.1v0.3h0.1c0.2,0,0.6,0,1-0.2v3.3c0,0.2,0,0.3-0.7,0.3h-0.3v0.3c0.4,0,0.9,0,1.3,0s1,0,1.3,0v-0.3
			h-0.3c-0.7,0-0.7-0.1-0.7-0.3L278.3,35.7L278.3,35.7z"/>
	</g>
</g>
<g>
	<g>
		<line class="st2" x1="289.1" y1="135.4" x2="289.1" y2="74.1"/>
		<g>
			<polygon class="st4" points="291.7,134.6 289.1,139.2 286.5,134.6 			"/>
		</g>
	</g>
</g>
<rect x="66.2" y="27.8" class="st47" width="6.7" height="35.6"/>
<text transform="matrix(0 -1 1 0 72.8166 62.7119)" class="st1 st48 st49">Depthwise</text>
<text transform="matrix(1 0 0 1 178.9889 169.1296)" class="st1 st48 st49">Router</text>
<rect x="178.8" y="41.9" class="st47" width="32" height="7.2"/>
<text transform="matrix(1 0 0 1 178.7253 48.5112)" class="st1 st48 st49">Compress</text>
<rect x="178.8" y="77.7" class="st47" width="32" height="7.2"/>
<text transform="matrix(1 0 0 1 178.7251 84.3516)" class="st1 st48 st49">Compress</text>
<rect x="257.9" y="52.1" class="st47" width="6.7" height="22.7"/>
<text transform="matrix(0 -1 1 0 264.4632 74.7334)" class="st1 st48 st49">Extend</text>
<path class="st28" d="M292.6,75.1h-7c-1.4,0-2.5-1.1-2.5-2.5V30.4c0-1.4,1.1-2.5,2.5-2.5h7c1.4,0,2.5,1.1,2.5,2.5v42.2
	C295.1,73.9,294,75.1,292.6,75.1z"/>
<rect x="285.7" y="40.1" class="st47" width="6.7" height="22.7"/>
<text transform="matrix(0 -1 1 0 292.343 62.7949)" class="st1 st48 st49">Extend</text>
<path class="st28" d="M320.4,62h-7c-1.4,0-2.5-1.1-2.5-2.5V17.3c0-1.4,1.1-2.5,2.5-2.5h7c1.4,0,2.5,1.1,2.5,2.5v42.2
	C322.9,60.9,321.8,62,320.4,62z"/>
<rect x="313.5" y="27.1" class="st47" width="6.7" height="22.7"/>
<text transform="matrix(0 -1 1 0 320.1416 49.7354)" class="st1 st48 st49">Extend</text>
<rect x="67.3" y="140.6" class="st47" width="6.7" height="23.1"/>
<text transform="matrix(0 -1 1 0 73.9104 163.708)" class="st1 st48 st49">DConv</text>
<rect x="12" y="87.3" class="st47" width="6.7" height="23.1"/>
<text transform="matrix(0 -1 1 0 18.5573 110.2285)" class="st1 st48 st49">Project</text>
<rect x="26.4" y="89.1" class="st47" width="6.7" height="19.6"/>
<text transform="matrix(0 -1 1 0 32.9617 108.6738)" class="st1 st48 st49">chunk</text>
<rect x="79.9" y="27.8" class="st47" width="6.7" height="35.6"/>
<text transform="matrix(0 -1 1 0 86.4685 61.3848)" class="st1 st48 st49">Ponitwise</text>
<rect x="46" y="27.9" class="st47" width="14.1" height="35.6"/>
<text transform="matrix(0 -1 1 0 52.6194 57.2021)" class="st1 st48 st49">DConv</text>
<text transform="matrix(0 -1 1 0 59.6194 57.1025)" class="st1 st48 st49">stride s</text>
<rect x="93.7" y="27.6" class="st47" width="6.7" height="35.6"/>
<text transform="matrix(0 -1 1 0 100.3461 56.085)" class="st1 st48 st49">Interpl</text>
<rect x="211.2" y="129.6" class="st47" width="32" height="7.2"/>
<text transform="matrix(1 0 0 1 213.3997 136.269)" class="st1 st48 st49">Training</text>
<rect x="211.2" y="167.5" class="st47" width="32" height="7.2"/>
<text transform="matrix(1 0 0 1 212.0755 174.1147)" class="st1 st48 st49">Inference</text>
<rect x="-26.6" y="4.2" class="st47" width="20" height="7.1"/>
</svg>
